<?xml version="1.0" standalone="no"?>
<!DOCTYPE svg PUBLIC "-//W3C//DTD SVG 20010904//EN"
 "http://www.w3.org/TR/2001/REC-SVG-20010904/DTD/svg10.dtd">
<svg version="1.0" xmlns="http://www.w3.org/2000/svg"
 width="2500" height="1600" viewBox="0 0 500 500"
 preserveAspectRatio="xMidYMid meet">

<g transform="translate(0.000000,500.000000) scale(0.100000,-0.100000)" fill="blue" stroke="none">
<path d="M2395 4156 c-212 -41 -393 -137 -543 -288 -40 -40 -79 -83 -87 -95
-21 -29 -14 -30 102 -3 64 15 120 38 203 83 139 75 149 80 225 107 33 12 85
31 115 42 126 46 314 60 460 34 160 -29 317 -108 435 -218 120 -112 108 -76
-18 50 -129 131 -286 222 -467 269 -118 31 -318 40 -425 19z"/>
<path d="M2525 3925 c-29 -28 -31 -51 -9 -83 32 -45 114 -18 114 3s9 0 25 -39
69 -61 69 -11 0 -31 -11 -44 -25z"/>
<path d="M2255 3896 c-74 -29 -202 -92 -209 -105 -11 -17 74 -41 152 -42 46
-1 67 -4 53 -8 -25 -7 -24 -7 12 -29 26 -15 47 -20 70 -17 21 4 26 3 14 -3
-16 -6 -12 -11 21 -30 31 -17 56 -22 116 -22 66 0 75 2 69 17 -4 11 -3 14 5 9
15 -9 44 38 40 66 -2 17 -11 24 -31 26 -33 4 -45 -18 -29 -53 11 -23 10 -23
-26 -18 -78 12 -102 45 -102 143 0 49 -4 61 -22 74 -30 21 -62 19 -133 -8z"/>
<path d="M2740 3900 c-16 -16 -20 -33 -20 -80 0 -82 -19 -117 -68 -125 -47 -8
-66 -18 -70 -39 -6 -26 135 -23 183 5 33 20 34 22 18 35 -15 11 -13 12 19 2
32 -9 40 -8 67 11 17 13 29 27 26 32 -4 5 21 9 58 9 37 0 81 7 103 16 37 15
38 17 19 31 -34 25 -176 94 -224 109 -63 19 -87 18 -111 -6z"/>
<path d="M2523 3795 c2 -5 16 -14 31 -20 21 -7 30 -5 46 10 19 20 19 20 -30
20 -29 0 -49 -4 -47 -10z"/>
<path d="M1990 3765 c-45 -22 -216 -59 -330 -71 -96 -10 -105 -18 -45 -46 42
-19 66 -23 145 -22 104 0 187 18 315 67 l80 31 -41 12 c-22 6 -54 19 -70 27
-24 12 -34 13 -54 2z"/>
<path d="M3086 3761 c-4 -5 -29 -15 -57 -22 l-51 -13 43 -19 c114 -48 268 -87
346 -87 91 0 213 41 181 61 -7 5 -27 9 -44 9 -52 0 -263 40 -326 61 -64 21
-84 23 -92 10z"/>
<path d="M2162 3714 c-54 -38 -240 -96 -361 -113 l-56 -8 30 -13 c52 -23 218
-18 299 9 74 24 181 75 190 90 6 10 -26 34 -59 45 -12 3 -30 -1 -43 -10z"/>
<path d="M2899 3709 c-47 -22 -46 -25 23 -62 98 -54 195 -80 298 -80 64 0 107
6 130 16 l35 15 -30 1 c-81 3 -262 54 -356 101 l-57 28 -43 -19z"/>
<path d="M2798 3662 c-16 -9 -28 -19 -28 -23 0 -3 47 -30 104 -59 113 -58 191
-73 251 -50 30 11 29 12 -58 40 -97 31 -143 51 -199 87 -44 27 -36 27 -70 5z"/>
<path d="M2245 3645 c-42 -26 -137 -64 -220 -88 l-50 -15 28 -11 c43 -17 101
-13 169 10 64 21 188 88 188 101 0 11 -36 28 -57 28 -10 0 -36 -12 -58 -25z"/>
<path d="M2515 3611 c-3 -6 3 -15 14 -20 27 -15 31 -14 31 9 0 21 -33 29 -45
11z"/>
<path d="M2578 3595 c4 -25 5 -25 23 -9 15 14 17 19 7 26 -24 15 -35 8 -30
-17z"/>
<path d="M2375 3585 c-113 -30 -161 -162 -94 -256 12 -18 47 -43 78 -58 47
-21 75 -26 176 -31 129 -5 158 -15 191 -65 20 -30 12 -57 -27 -89 -16 -14 -29
-27 -29 -29 0 -3 14 -10 30 -17 28 -12 33 -10 56 11 73 68 70 148 -6 213 -40
33 -83 44 -203 50 -108 6 -153 22 -192 68 -36 43 -34 89 6 122 29 25 36 26 90
20 41 -5 63 -3 74 6 20 17 19 26 -5 50 -23 23 -71 25 -145 5z"/>
<path d="M2616 3579 c-32 -25 -33 -34 -2 -54 21 -14 31 -14 66 -4 37 11 46 10
76 -6 73 -39 57 -137 -29 -175 l-38 -17 44 -26 c44 -24 46 -24 74 -7 67 41 91
101 68 176 -18 61 -57 101 -120 120 -66 20 -108 18 -139 -7z"/>
<path d="M1643 3573 c-3 -10 -15 -40 -25 -68 -30 -76 -58 -213 -58 -282 l0
-63 124 0 123 0 7 78 c7 76 38 208 56 243 20 36 12 45 -56 56 -41 7 -75 20
-88 32 -28 26 -74 28 -83 4z"/>
<path d="M2547 3522 c-10 -28 -17 -77 -17 -119 l0 -73 36 0 36 0 -4 98 c-2 67
-8 104 -19 119 -15 22 -16 22 -32 -25z"/>
<path d="M2335 3205 c-32 -83 -5 -150 76 -192 35 -18 61 -22 129 -23 91 0 137
-17 160 -59 14 -27 3 -68 -23 -86 -17 -12 -18 -17 -7 -30 19 -23 36 -18 64 18
51 66 23 161 -57 200 -27 14 -59 19 -113 18 -135 -1 -188 56 -134 144 l21 33
-33 7 c-18 4 -40 9 -50 11 -12 4 -21 -7 -33 -41z"/>
<path d="M2558 3222 c-28 -3 -28 -4 -28 -78 l0 -74 35 0 35 0 0 74 c0 41 -3
76 -7 78 -5 2 -20 2 -35 0z"/>
<path d="M3325 3063 c-24 -270 -172 -515 -403 -670 -88 -59 -212 -112 -294
-127 l-38 -7 0 78 c1 72 2 77 16 58 9 -12 14 -34 12 -52 -4 -37 7 -32 17 8 8
32 -28 78 -85 110 -49 28 -63 57 -47 99 10 27 15 30 42 24 16 -3 45 -12 63
-20 41 -17 44 -54 7 -89 -17 -15 -22 -26 -15 -30 7 -4 25 5 41 21 60 57 28
128 -71 159 -88 28 -119 71 -90 125 8 14 5 19 -13 24 -29 7 -38 -4 -44 -58 -5
-44 -4 -49 35 -85 30 -29 37 -41 26 -45 -9 -4 -14 -20 -14 -51 0 -51 20 -78
76 -101 34 -14 34 -14 14 -34 -19 -19 -25 -54 -20 -121 1 -25 -2 -27 -53 -33
-114 -15 -308 25 -442 90 -141 68 -247 157 -348 294 -18 25 -18 25 -1 -5 63
-110 187 -245 289 -315 277 -188 626 -234 929 -122 128 47 197 89 321 196 98
86 97 85 143 144 114 147 202 387 202 553 l0 59 -124 0 -124 0 -7 -77z"/>
<path d="M2392 2970 c-6 -11 -12 -42 -12 -69 0 -43 4 -52 35 -80 20 -17 45
-33 58 -35 163 -31 187 -42 187 -80 0 -13 -9 -35 -21 -50 -21 -27 -18 -46 6
-46 22 0 65 71 65 107 0 61 -86 123 -173 123 -39 0 -95 28 -102 50 -3 10 1 34
9 53 8 20 12 38 8 41 -12 13 -48 5 -60 -14z"/>
<path d="M2558 2972 c-27 -3 -28 -6 -28 -57 0 -55 8 -65 51 -65 17 0 19 8 19
59 0 33 -3 61 -7 63 -5 2 -20 2 -35 0z"/>
<path d="M2534 2745 c-8 -21 5 -88 19 -97 7 -4 20 -8 30 -8 14 0 17 9 17 50 0
45 -3 52 -26 60 -33 13 -34 13 -40 -5z"/>
<path d="M2530 2531 c0 -30 5 -42 25 -55 34 -22 45 -13 45 35 0 33 -4 41 -26
49 -40 15 -44 13 -44 -29z"/>
<path d="M2512 2400 c-14 -22 -16 -59 -4 -77 5 -8 8 1 8 22 0 19 8 43 19 55
14 15 15 20 4 20 -8 0 -20 -9 -27 -20z"/>
<path d="M350 1475 l0 -155 90 0 c89 0 90 0 90 25 0 24 -2 25 -65 25 l-65 0 0
130 0 130 -25 0 -25 0 0 -155z"/>
<path d="M616 1480 c-36 -82 -66 -152 -66 -155 0 -3 11 -5 24 -5 19 0 27 8 36
35 l12 35 82 0 82 0 17 -35 c12 -26 23 -35 41 -35 24 0 23 2 -42 155 -62 144
-69 155 -93 155 -25 0 -32 -11 -93 -150z m119 34 c14 -31 25 -60 25 -65 0 -5
-25 -9 -55 -9 -30 0 -55 2 -55 4 0 2 7 21 16 42 9 22 20 49 25 62 5 12 11 22
14 22 3 0 16 -25 30 -56z"/>
<path d="M969 1608 c-132 -76 -85 -272 68 -285 33 -3 58 1 82 14 38 20 45 31
32 52 -7 11 -13 10 -35 -4 -15 -10 -44 -17 -69 -17 -35 1 -47 7 -74 36 -37 40
-42 79 -18 126 30 58 119 77 165 35 15 -14 18 -13 34 4 17 19 17 20 -23 40
-52 27 -116 27 -162 -1z"/>
<path d="M1220 1524 c0 -126 14 -164 67 -189 44 -21 114 -15 152 12 37 28 50
74 50 186 1 97 1 97 -24 97 l-25 0 0 -106 c0 -103 -1 -106 -29 -135 -33 -32
-58 -36 -100 -14 -38 19 -41 30 -41 151 l0 104 -25 0 -25 0 0 -106z"/>
<path d="M1570 1476 l0 -156 25 0 c23 0 25 3 25 50 l0 50 44 0 c43 0 46 -2 73
-50 23 -41 33 -50 56 -50 l28 0 -35 51 -34 51 31 27 c26 24 30 35 30 75 0 38
-5 53 -27 74 -24 25 -34 27 -121 30 l-95 4 0 -156z m163 103 c28 -15 37 -28
37 -56 0 -41 -34 -63 -95 -63 l-55 0 0 65 0 65 46 0 c25 0 55 -5 67 -11z"/>
<path d="M1890 1475 l0 -155 110 0 110 0 0 25 c0 25 -1 25 -85 25 l-85 0 0 45
0 45 75 0 c68 0 75 2 75 20 0 18 -7 20 -75 20 l-75 0 0 45 0 45 85 0 c78 0 85
2 85 20 0 19 -7 20 -110 20 l-110 0 0 -155z"/>
<path d="M2300 1475 c0 -148 1 -155 20 -155 18 0 20 8 22 118 l3 117 53 -103
c30 -59 58 -102 65 -100 7 2 35 49 64 103 l52 100 1 -117 c0 -111 1 -118 20
-118 19 0 20 7 20 155 l0 155 -28 0 c-25 0 -32 -9 -77 -100 -27 -55 -52 -100
-55 -100 -3 0 -28 45 -55 100 -45 91 -52 100 -77 100 l-28 0 0 -155z"/>
<path d="M2710 1475 l0 -155 110 0 110 0 0 25 c0 25 -1 25 -85 25 l-85 0 0 45
0 45 75 0 c68 0 75 2 75 20 0 18 -7 20 -75 20 l-75 0 0 45 0 45 85 0 c78 0 85
2 85 20 0 19 -7 20 -110 20 l-110 0 0 -155z"/>
<path d="M3000 1475 l0 -157 95 4 c75 3 100 8 122 24 50 38 68 71 68 129 0 58
-18 91 -69 129 -22 17 -46 22 -122 24 l-94 4 0 -157z m175 101 c54 -23 81 -96
54 -149 -22 -43 -50 -57 -116 -57 l-63 0 0 110 0 110 45 0 c25 0 61 -6 80 -14z"/>
<path d="M3350 1475 l0 -155 25 0 25 0 0 155 0 155 -25 0 -25 0 0 -155z"/>
<path d="M3540 1611 c-108 -57 -108 -213 0 -268 55 -28 99 -29 150 -3 42 22
48 31 27 48 -8 7 -18 6 -31 -4 -11 -8 -42 -14 -69 -14 -42 0 -53 4 -78 31 -51
55 -36 139 31 174 39 20 69 19 107 -4 27 -17 33 -18 43 -6 16 19 5 34 -36 51
-46 19 -103 18 -144 -5z"/>
<path d="M3876 1598 c-8 -18 -39 -88 -69 -155 l-55 -123 27 0 c22 0 29 7 40
35 l12 35 84 0 83 0 12 -35 c9 -27 17 -35 36 -35 13 0 24 3 24 8 0 4 -28 72
-63 152 -57 131 -66 145 -90 148 -23 3 -30 -2 -41 -30z m94 -150 c0 -5 -25 -8
-55 -8 -30 0 -55 4 -55 9 0 5 12 35 26 67 l27 59 28 -60 c15 -33 28 -63 29
-67z"/>
<path d="M4120 1475 l0 -155 24 0 c23 0 25 5 28 48 l3 47 42 3 c41 3 43 2 74
-47 23 -39 37 -51 55 -51 31 0 30 2 -7 56 l-30 44 26 23 c32 27 43 84 25 128
-18 43 -62 59 -160 59 l-80 0 0 -155z m184 94 c26 -26 27 -55 5 -82 -18 -24
-27 -27 -80 -27 l-59 0 0 66 0 66 60 -4 c34 -2 67 -11 74 -19z"/>
<path d="M4450 1475 l0 -155 110 0 110 0 0 25 c0 25 -1 25 -91 25 l-90 0 3 43
3 42 78 3 c69 3 77 5 77 22 0 18 -7 20 -81 20 l-80 0 3 43 3 42 83 3 c74 3 82
5 82 22 0 19 -7 20 -105 20 l-105 0 0 -155z"/>
<path d="M820 715 c0 -78 2 -85 20 -85 15 0 20 7 20 29 0 27 3 30 37 33 52 4
56 28 4 28 -37 0 -41 2 -41 25 0 23 4 25 40 25 29 0 40 4 40 15 0 12 -13 15
-60 15 l-60 0 0 -85z"/>
<path d="M1005 788 c-52 -28 -62 -92 -19 -135 22 -22 32 -25 67 -20 49 7 77
35 77 79 0 42 -15 64 -51 77 -39 13 -48 13 -74 -1z m82 -54 c8 -22 -5 -61 -23
-68 -40 -15 -77 23 -66 67 10 38 74 39 89 1z"/>
<path d="M1160 716 c0 -79 2 -86 20 -86 15 0 20 7 20 25 0 18 5 25 18 25 11 0
24 -11 30 -25 7 -15 20 -25 32 -25 19 0 20 2 6 29 -14 26 -14 30 -1 41 8 7 15
22 15 34 0 40 -22 57 -83 63 l-57 6 0 -87z m88 45 c23 -14 10 -46 -21 -49 -24
-3 -27 0 -27 27 0 32 19 41 48 22z"/>
<path d="M1431 789 c-33 -13 -50 -38 -51 -74 0 -41 23 -72 60 -80 17 -4 30
-11 30 -15 0 -5 9 -14 20 -20 23 -12 73 -2 67 14 -3 6 -10 10 -17 8 -7 -2 -20
0 -28 3 -11 4 -8 10 12 26 19 15 26 30 26 54 0 47 -8 64 -41 80 -32 17 -44 18
-78 4z m63 -32 c36 -26 14 -97 -30 -97 -20 0 -44 30 -44 55 0 13 10 31 22 39
27 19 29 19 52 3z"/>
<path d="M1580 740 c0 -51 4 -65 25 -85 30 -31 77 -33 105 -5 16 16 20 33 20
85 0 58 -2 65 -20 65 -16 0 -19 -8 -22 -61 -2 -45 -8 -65 -20 -72 -30 -19 -48
8 -48 74 0 52 -2 59 -20 59 -18 0 -20 -7 -20 -60z"/>
<path d="M1805 768 c-7 -18 -23 -55 -34 -81 -12 -27 -21 -51 -21 -53 0 -11 39
-2 44 11 8 21 75 20 91 -1 6 -9 18 -15 27 -13 12 3 9 18 -20 87 -40 93 -63
106 -87 50z m50 -55 c5 -20 3 -23 -19 -23 -30 0 -30 0 -14 35 12 27 22 24 33
-12z"/>
<path d="M1950 715 l0 -85 55 0 c42 0 55 3 55 15 0 10 -11 15 -35 15 l-35 0 0
70 c0 63 -2 70 -20 70 -18 0 -20 -7 -20 -85z"/>
<path d="M2087 793 c-4 -3 -7 -42 -7 -85 0 -71 2 -78 20 -78 18 0 20 7 20 85
0 64 -3 85 -13 85 -8 0 -17 -3 -20 -7z"/>
<path d="M2150 786 c0 -8 10 -16 23 -18 20 -3 22 -9 25 -70 2 -50 7 -68 17
-68 10 0 15 18 17 68 3 65 4 67 31 70 54 6 22 27 -46 30 -54 2 -67 0 -67 -12z"/>
<path d="M2320 740 c16 -33 30 -71 30 -85 0 -18 5 -25 20 -25 15 0 20 7 20 28
0 16 14 54 31 85 29 55 30 57 10 57 -14 0 -27 -11 -38 -35 -9 -19 -20 -35 -23
-35 -4 0 -15 16 -26 35 -10 20 -26 35 -36 35 -16 0 -15 -7 12 -60z"/>
<path d="M2530 715 c0 -67 3 -85 14 -85 9 0 16 12 18 33 3 29 6 32 41 35 36 3
37 3 37 -32 0 -29 4 -36 20 -36 18 0 20 7 20 85 0 78 -2 85 -20 85 -16 0 -20
-7 -20 -35 0 -34 -1 -35 -40 -35 -39 0 -40 1 -40 35 0 24 -5 35 -15 35 -12 0
-15 -16 -15 -85z"/>
<path d="M2717 793 c-4 -3 -7 -42 -7 -85 l0 -78 65 0 c51 0 65 3 65 15 0 11
-12 15 -45 15 -38 0 -45 3 -45 20 0 17 7 20 40 20 29 0 40 4 40 15 0 11 -11
15 -41 15 -33 0 -40 3 -37 18 2 12 15 18 46 20 28 2 42 8 42 18 0 10 -14 14
-58 14 -32 0 -62 -3 -65 -7z"/>
<path d="M2901 728 c-18 -40 -35 -79 -38 -85 -3 -8 3 -13 15 -13 11 0 22 7 26
15 8 21 75 20 91 -1 6 -9 19 -15 28 -13 13 3 11 15 -18 84 -45 108 -61 110
-104 13z m63 0 c9 -35 8 -38 -14 -38 -11 0 -20 3 -20 8 0 19 13 52 20 52 4 0
10 -10 14 -22z"/>
<path d="M3060 715 l0 -85 55 0 c42 0 55 3 55 15 0 10 -11 15 -35 15 l-35 0 0
70 c0 63 -2 70 -20 70 -18 0 -20 -7 -20 -85z"/>
<path d="M3180 785 c0 -9 9 -15 25 -15 24 0 25 -2 25 -70 0 -63 2 -70 20 -70
18 0 20 7 20 70 0 68 1 70 25 70 16 0 25 6 25 15 0 12 -14 15 -70 15 -56 0
-70 -3 -70 -15z"/>
<path d="M3340 715 c0 -78 2 -85 20 -85 16 0 20 7 20 35 0 33 2 35 35 35 33 0
35 -2 35 -35 0 -28 4 -35 20 -35 18 0 20 7 20 86 0 76 -2 85 -17 82 -12 -2
-19 -14 -21 -36 -3 -29 -6 -32 -38 -32 -32 0 -34 2 -34 35 0 28 -4 35 -20 35
-18 0 -20 -7 -20 -85z"/>
<path d="M3574 790 c-26 -10 -54 -48 -54 -72 0 -70 78 -109 140 -69 25 17 -2
36 -30 21 -29 -16 -70 10 -70 45 0 34 41 61 70 45 20 -11 40 -6 40 9 0 9 -46
31 -63 30 -7 0 -22 -4 -33 -9z"/>
<path d="M3721 728 c-18 -40 -35 -79 -38 -85 -3 -8 3 -13 15 -13 11 0 22 7 26
15 8 21 75 20 91 -1 6 -9 19 -15 28 -13 13 3 11 15 -18 84 -45 108 -61 110
-104 13z m63 0 c9 -35 8 -38 -14 -38 -11 0 -20 3 -20 8 0 19 13 52 20 52 4 0
10 -10 14 -22z"/>
<path d="M3880 715 c0 -78 2 -85 20 -85 15 0 20 7 20 25 0 18 5 25 18 25 11 0
24 -11 30 -25 7 -15 20 -25 32 -25 24 0 25 8 5 34 -13 17 -13 22 1 37 9 10 14
30 12 45 -4 35 -37 54 -95 54 l-43 0 0 -85z m99 37 c13 -24 -4 -42 -36 -42
-19 0 -23 5 -23 30 0 25 4 30 25 30 13 0 29 -8 34 -18z"/>
<path d="M4060 715 l0 -85 65 0 c50 0 65 3 65 14 0 11 -14 16 -47 18 -35 2
-48 7 -48 18 0 10 12 16 38 18 23 2 37 8 37 17 0 9 -14 15 -37 17 -55 4 -52
32 5 36 28 2 42 8 42 18 0 11 -14 14 -60 14 l-60 0 0 -85z"/>
</g>
</svg>
